<svg xmlns="http://www.w3.org/2000/svg" width="32" height="32" viewBox="0 0 32 32">
  <rect width="32" height="32" rx="8" fill="#006067"/>
  <g transform="translate(6,6)" fill="white">
    <!-- Phone handset -->
    <path d="M4.2 1.4C3.4.6 2.2.6 1.4 1.4L.6 2.2C-.6 3.4-.2 5.6 1.8 8.2c1.6 2 3.6 4 5.6 5.6 2.6 2 4.8 2.4 6 1.2l.8-.8c.8-.8.8-2 0-2.8l-2-2c-.8-.8-2-.8-2.8 0l-.4.4c-.6-.4-1.4-1-2.2-1.8-.8-.8-1.4-1.6-1.8-2.2l.4-.4c.8-.8.8-2 0-2.8l-2-2z" opacity="0.95"/>
    <!-- Paw pad (center) -->
    <ellipse cx="14.5" cy="10" rx="2.2" ry="2.5" opacity="0.95"/>
    <!-- Paw toes -->
    <ellipse cx="11.2" cy="6" rx="1.3" ry="1.6" opacity="0.95"/>
    <ellipse cx="14.5" cy="4.8" rx="1.3" ry="1.6" opacity="0.95"/>
    <ellipse cx="17.8" cy="6" rx="1.3" ry="1.6" opacity="0.95"/>
  </g>
</svg>
